<?xml version="1.0" encoding="UTF-8" standalone="no"?>
<svg
   width="520"
   height="124"
   viewBox="0 0 517.02866 124"
   version="1.1"
   id="svg33"
   sodipodi:docname="logo.svg"
   inkscape:version="1.3 (0e150ed, 2023-07-21)"
   xmlns:inkscape="http://www.inkscape.org/namespaces/inkscape"
   xmlns:sodipodi="http://sodipodi.sourceforge.net/DTD/sodipodi-0.dtd"
   xmlns="http://www.w3.org/2000/svg"
   xmlns:svg="http://www.w3.org/2000/svg">
  <sodipodi:namedview
     id="namedview33"
     pagecolor="#ffffff"
     bordercolor="#000000"
     borderopacity="0.25"
     inkscape:showpageshadow="2"
     inkscape:pageopacity="0.0"
     inkscape:pagecheckerboard="0"
     inkscape:deskcolor="#d1d1d1"
     inkscape:zoom="1.1952754"
     inkscape:cx="187.40451"
     inkscape:cy="10.457841"
     inkscape:window-width="1440"
     inkscape:window-height="970"
     inkscape:window-x="0"
     inkscape:window-y="25"
     inkscape:window-maximized="0"
     inkscape:current-layer="svg33" />
  <defs
     id="defs8">
    <linearGradient
       id="linear0"
       gradientUnits="userSpaceOnUse"
       x1="21.2876"
       y1="95.839798"
       x2="70.002701"
       y2="95.839798"
       gradientTransform="matrix(0.184229,0.0941222,-0.0935923,0.185273,59.391946,47.021994)">
      <stop
         offset="0"
         style="stop-color:rgb(0%,61.568627%,88.235294%);stop-opacity:1;"
         id="stop1" />
      <stop
         offset="1"
         style="stop-color:rgb(0%,41.176471%,67.45098%);stop-opacity:1;"
         id="stop2" />
    </linearGradient>
    <linearGradient
       id="linear1"
       gradientUnits="userSpaceOnUse"
       x1="169.34081"
       y1="281.82321"
       x2="264.60889"
       y2="281.82321"
       gradientTransform="matrix(0.206651,0,0,0.207821,0,0.173185)">
      <stop
         offset="0"
         style="stop-color:rgb(0%,64.705882%,89.019608%);stop-opacity:1;"
         id="stop3" />
      <stop
         offset="1"
         style="stop-color:rgb(0%,41.176471%,67.45098%);stop-opacity:1;"
         id="stop4" />
    </linearGradient>
    <linearGradient
       id="linear2"
       gradientUnits="userSpaceOnUse"
       x1="185.6196"
       y1="313.457"
       x2="280.88571"
       y2="313.457"
       gradientTransform="matrix(0.206651,0,0,0.207821,0,0.173185)">
      <stop
         offset="0"
         style="stop-color:rgb(0%,64.705882%,89.019608%);stop-opacity:1;"
         id="stop5" />
      <stop
         offset="1"
         style="stop-color:rgb(0%,41.176471%,67.45098%);stop-opacity:1;"
         id="stop6" />
    </linearGradient>
    <radialGradient
       id="radial0"
       gradientUnits="userSpaceOnUse"
       cx="247.4678"
       cy="778.30573"
       fx="247.4678"
       fy="778.30573"
       r="88.1633"
       gradientTransform="matrix(0.169888,-0.118313,-0.117646,-0.17085,92.70176,224.95983)">
      <stop
         offset="0"
         style="stop-color:rgb(100%,100%,100%);stop-opacity:1;"
         id="stop7" />
      <stop
         offset="1"
         style="stop-color:rgb(0%,61.568627%,88.235294%);stop-opacity:1;"
         id="stop8" />
    </radialGradient>
  </defs>
  <g
     id="surface1"
     transform="matrix(3.5961908,0,0,3.5961908,-57.981105,-160.41052)">
    <path
       style="fill:url(#linear0);fill-rule:nonzero;stroke:none"
       d="M 64.269531,69.484375 58.246094,68.597656 55.5,68.152344 c -0.214844,0.417968 -0.449219,0.824218 -0.71875,1.21875 z m 0,0"
       id="path8" />
    <path
       style="fill:url(#linear1);fill-rule:nonzero;stroke:none"
       d="m 34.996094,62.027344 c 0,2.734375 2.203125,4.953125 4.921875,4.953125 2.5625,0 4.667969,-1.96875 4.902343,-4.480469 0.01563,-0.152344 0.02344,-0.3125 0.02344,-0.472656 0,-0.15625 -0.0078,-0.3125 -0.02344,-0.46875 0.242188,-4.316406 3.800782,-7.742188 8.152344,-7.742188 0.585938,0 1.15625,0.0625 1.710938,0.183594 -2.085938,-2.15625 -5,-3.5 -8.230469,-3.5 -6.328125,0 -11.457031,5.164062 -11.457031,11.527344 z m 0,0"
       id="path9" />
    <path
       style="fill:url(#linear2);fill-rule:nonzero;stroke:none"
       d="m 58.046875,62.027344 c 0,-2.734375 -2.207031,-4.949219 -4.925781,-4.949219 -2.5625,0 -4.664063,1.96875 -4.902344,4.480469 -0.01563,0.152344 -0.01953,0.3125 -0.01953,0.472656 0,0.15625 0.0039,0.316406 0.01953,0.46875 -0.242188,4.316406 -3.796875,7.742188 -8.148438,7.742188 -0.589843,0 -1.160156,-0.06641 -1.710937,-0.183594 2.082031,2.15625 5,3.5 8.222656,3.5 6.328125,0 11.464844,-5.164063 11.464844,-11.53125 z m 0,0"
       id="path10" />
    <path
       style="fill:url(#radial0);fill-rule:nonzero;stroke:none"
       d="m 68.414062,62.972656 c -0.01953,1.898438 -5.277343,3.492188 -13.015624,4.269532 -0.03516,0.0039 -0.06641,0.0078 -0.09766,0.01172 -0.03516,0 -0.06641,0.0078 -0.09766,0.0078 -3.601563,0.355469 -7.730469,0.535156 -12.113281,0.484375 -2.992188,-0.03516 -5.859375,-0.171875 -8.519532,-0.390625 -0.101562,-0.0078 -0.207031,-0.01953 -0.304687,-0.02734 -0.01953,-0.0039 -0.03516,-0.0039 -0.05078,-0.0039 C 24.648438,66.5 17.855469,64.578125 17.875,62.410156 c 0.02734,-2.148437 8.773438,-4.625 18.234375,-5.25 0.0039,0 0.0078,0 0.01563,0 -0.25,0.507813 -0.460938,1.03125 -0.632812,1.570313 -3.570313,0.242187 -7.859376,1.261719 -7.921876,2.34375 -0.04687,0.832031 2.117188,1.761719 5.640626,2.566406 0.01953,0.0039 0.04687,0.0078 0.06641,0.01172 0.539062,0.125 1.113281,0.242187 1.71875,0.363281 2.835937,0.546875 6.300781,1.015625 10.054687,1.316406 0.03906,0 0.07813,0.0039 0.117188,0.0078 3.460937,0.277344 6.699219,0.371094 9.4375,0.308594 0.410156,-0.0078 0.804687,-0.01953 1.1875,-0.03125 0.03516,-0.0078 0.06641,-0.0078 0.101562,-0.0078 0.02734,-0.0039 0.05469,-0.0039 0.08203,-0.0039 4.199219,-0.183594 6.96875,-0.777344 7.003907,-1.6875 0.0625,-1.359375 -0.839844,-1.605469 -4.960938,-2.457031 -0.125,-0.917969 -0.425781,-1.9375 -1.359375,-2.875 7.628906,0.957031 11.769532,2.503906 11.753906,4.386718 z m 0,0"
       id="path11" />
    <path
       style="fill:#21a8e1;fill-opacity:1;fill-rule:nonzero;stroke:none"
       d="m 76.5,72.046875 h 0.972656 c 0.390625,0 0.6875,0.04297 0.902344,0.136719 0.207031,0.08594 0.371094,0.226562 0.492188,0.410156 0.125,0.1875 0.183593,0.394531 0.183593,0.621094 0,0.214844 -0.05078,0.40625 -0.160156,0.578125 -0.105469,0.171875 -0.265625,0.3125 -0.46875,0.425781 0.253906,0.08203 0.453125,0.179688 0.59375,0.292969 0.136719,0.113281 0.242187,0.25 0.320313,0.417969 0.07812,0.152343 0.109374,0.332031 0.109374,0.519531 0,0.378906 -0.140624,0.707031 -0.429687,0.96875 -0.289063,0.269531 -0.679687,0.402343 -1.164063,0.402343 H 76.5 Z m 0.484375,0.464844 v 1.53125 h 0.28125 c 0.339844,0 0.59375,-0.03516 0.753906,-0.09375 0.160157,-0.05859 0.289063,-0.15625 0.378907,-0.292969 0.09766,-0.132812 0.144531,-0.28125 0.144531,-0.441406 0,-0.21875 -0.07813,-0.390625 -0.238281,-0.515625 -0.15625,-0.121094 -0.40625,-0.1875 -0.753907,-0.1875 z m 0,2.007812 v 1.832031 h 0.609375 c 0.359375,0 0.625,-0.03516 0.789062,-0.105468 0.167969,-0.0625 0.304688,-0.171875 0.40625,-0.316406 0.101563,-0.148438 0.152344,-0.304688 0.152344,-0.472657 0,-0.214843 -0.07422,-0.394531 -0.214844,-0.550781 -0.140624,-0.160156 -0.339843,-0.265625 -0.589843,-0.328125 -0.167969,-0.03906 -0.460938,-0.05859 -0.875,-0.05859 z m 0,0"
       id="path12" />
    <path
       style="fill:#21a8e1;fill-opacity:1;fill-rule:nonzero;stroke:none"
       d="m 81.722656,72.046875 h 0.492188 v 4.773437 h -0.492188 z m 0,0"
       id="path13" />
    <path
       style="fill:#21a8e1;fill-opacity:1;fill-rule:nonzero;stroke:none"
       d="m 87.054688,71.925781 c 0.746093,0 1.371093,0.242188 1.875,0.726563 0.5,0.480468 0.75,1.074218 0.75,1.777344 0,0.703124 -0.25,1.292968 -0.75,1.773437 -0.503907,0.492187 -1.113282,0.734375 -1.832032,0.734375 -0.730468,0 -1.347656,-0.242188 -1.847656,-0.726562 -0.5,-0.488282 -0.753906,-1.070313 -0.753906,-1.757813 0,-0.457031 0.113281,-0.882813 0.34375,-1.273437 0.230468,-0.390626 0.539062,-0.699219 0.933594,-0.921876 0.394531,-0.222656 0.820312,-0.332031 1.28125,-0.332031 z m 0.02344,0.464844 c -0.363281,0 -0.710937,0.09375 -1.035156,0.273437 -0.324219,0.1875 -0.582031,0.433594 -0.765625,0.746094 -0.183594,0.308594 -0.273438,0.65625 -0.273438,1.039063 0,0.570312 0.203125,1.046875 0.605469,1.4375 0.40625,0.394531 0.898437,0.589843 1.46875,0.589843 0.382813,0 0.738281,-0.08984 1.058594,-0.273437 0.328125,-0.179687 0.582031,-0.425781 0.761719,-0.734375 0.183593,-0.316406 0.273437,-0.65625 0.273437,-1.042969 0,-0.375 -0.08984,-0.71875 -0.273437,-1.019531 -0.179688,-0.308594 -0.433594,-0.554688 -0.769532,-0.742188 -0.328125,-0.179687 -0.679687,-0.273437 -1.050781,-0.273437 z m 0,0"
       id="path14" />
    <path
       style="fill:#21a8e1;fill-opacity:1;fill-rule:nonzero;stroke:none"
       d="m 91.652344,74.828125 h 1.84375 v 0.394531 h -1.84375 z m 0,0"
       id="path15" />
    <path
       style="fill:#21a8e1;fill-opacity:1;fill-rule:nonzero;stroke:none"
       d="m 95.195312,72.511719 v -0.464844 h 2.695313 v 0.464844 h -1.097656 v 4.308593 h -0.5 v -4.308593 z m 0,0"
       id="path16" />
    <path
       style="fill:#21a8e1;fill-opacity:1;fill-rule:nonzero;stroke:none"
       d="m 99.960938,72.046875 h 0.492192 v 2.003906 h 2.50781 v -2.003906 h 0.49219 v 4.773437 h -0.49219 v -2.304687 h -2.50781 v 2.304687 h -0.492192 z m 0,0"
       id="path17" />
    <path
       style="fill:#21a8e1;fill-opacity:1;fill-rule:nonzero;stroke:none"
       d="m 106.02734,72.046875 h 2.81641 v 0.464844 h -2.32812 v 1.496093 h 2.30859 v 0.46875 h -2.30859 v 1.875 h 2.30859 v 0.46875 h -2.79688 z m 0,0"
       id="path18" />
    <path
       style="fill:#21a8e1;fill-opacity:1;fill-rule:nonzero;stroke:none"
       d="m 111.08984,72.046875 h 0.98047 c 0.54688,0 0.91797,0.02344 1.11328,0.06641 0.28907,0.0625 0.52735,0.203125 0.71094,0.417969 0.1836,0.210938 0.27344,0.476562 0.27344,0.785156 0,0.261719 -0.0625,0.488282 -0.19141,0.683594 -0.125,0.199219 -0.30078,0.347656 -0.53515,0.449219 -0.23828,0.101562 -0.5586,0.152343 -0.97657,0.152343 l 1.77735,2.21875 h -0.61328 l -1.76563,-2.21875 h -0.27734 v 2.21875 h -0.4961 z m 0.4961,0.464844 v 1.621093 l 0.84375,0.0078 c 0.32812,0 0.57031,-0.02734 0.73047,-0.08984 0.16015,-0.05859 0.28125,-0.160156 0.37109,-0.289062 0.0859,-0.132813 0.12891,-0.28125 0.12891,-0.445313 0,-0.160156 -0.043,-0.308594 -0.13282,-0.433594 -0.0898,-0.132812 -0.20703,-0.230468 -0.35156,-0.28125 -0.14844,-0.0625 -0.38672,-0.08984 -0.72656,-0.08984 z m 0,0"
       id="path19" />
    <path
       style="fill:#21a8e1;fill-opacity:1;fill-rule:nonzero;stroke:none"
       d="m 118.60156,72.046875 2.29688,4.773437 h -0.53125 l -0.77344,-1.574218 h -2.11719 l -0.76953,1.574218 h -0.54687 l 2.32422,-4.773437 z m -0.0625,1.015625 -0.84375,1.726562 h 1.6836 z m 0,0"
       id="path20" />
    <path
       style="fill:#21a8e1;fill-opacity:1;fill-rule:nonzero;stroke:none"
       d="m 123.02734,72.046875 h 0.98438 c 0.55859,0 0.94141,0.02344 1.13672,0.07031 0.28125,0.07031 0.50781,0.203124 0.6875,0.414062 0.17969,0.207031 0.26953,0.472656 0.26953,0.785156 0,0.316406 -0.0898,0.582032 -0.26172,0.785156 -0.17578,0.210938 -0.41406,0.347657 -0.71875,0.417969 -0.22266,0.05859 -0.64062,0.07813 -1.25,0.07813 h -0.35547 v 2.222656 h -0.49219 z m 0.49219,0.464844 v 1.621093 l 0.83203,0.0078 c 0.33985,0 0.58203,-0.02734 0.74219,-0.08594 0.15625,-0.05859 0.28125,-0.160157 0.36719,-0.289063 0.0898,-0.136719 0.13281,-0.28125 0.13281,-0.449219 0,-0.160156 -0.043,-0.300781 -0.13281,-0.433594 -0.0859,-0.132812 -0.20703,-0.230468 -0.35156,-0.28125 -0.14454,-0.0625 -0.38282,-0.08984 -0.71875,-0.08984 z m 0,0"
       id="path21" />
    <path
       style="fill:#21a8e1;fill-opacity:1;fill-rule:nonzero;stroke:none"
       d="m 128.46094,72.046875 h 2.82422 v 0.464844 h -2.33204 v 1.496093 h 2.3086 v 0.46875 h -2.3086 v 1.875 h 2.3086 v 0.46875 h -2.80078 z m 0,0"
       id="path22" />
    <path
       style="fill:#21a8e1;fill-opacity:1;fill-rule:nonzero;stroke:none"
       d="m 133.51953,72.046875 h 0.48828 v 2.882813 c 0,0.339843 0.008,0.550781 0.0195,0.636718 0.0234,0.1875 0.082,0.34375 0.17188,0.472656 0.0859,0.125 0.23047,0.230469 0.41406,0.3125 0.18359,0.08984 0.37109,0.128907 0.55859,0.128907 0.16407,0 0.31641,-0.03125 0.46485,-0.09375 0.15234,-0.07031 0.27734,-0.160157 0.3789,-0.28125 0.0977,-0.121094 0.17188,-0.265625 0.21875,-0.433594 0.0352,-0.117187 0.0508,-0.371094 0.0508,-0.742187 v -2.882813 h 0.48828 v 2.882813 c 0,0.421874 -0.0391,0.765624 -0.12891,1.03125 -0.082,0.257812 -0.25391,0.492187 -0.51172,0.683593 -0.26172,0.195313 -0.57031,0.292969 -0.93359,0.292969 -0.40235,0 -0.73828,-0.08984 -1.01953,-0.277344 -0.28516,-0.179687 -0.47657,-0.425781 -0.57422,-0.726562 -0.0547,-0.1875 -0.0859,-0.519532 -0.0859,-1.003906 z m 0,0"
       id="path23" />
    <path
       style="fill:#21a8e1;fill-opacity:1;fill-rule:nonzero;stroke:none"
       d="m 138.86719,72.511719 v -0.464844 h 2.69922 v 0.464844 h -1.09766 v 4.308593 h -0.5 v -4.308593 z m 0,0"
       id="path24" />
    <path
       style="fill:#21a8e1;fill-opacity:1;fill-rule:nonzero;stroke:none"
       d="m 143.57422,72.046875 h 0.49609 v 4.773437 h -0.49609 z m 0,0"
       id="path25" />
    <path
       style="fill:#21a8e1;fill-opacity:1;fill-rule:nonzero;stroke:none"
       d="m 151.14453,72.933594 -0.38281,0.285156 C 150.54687,72.953125 150.28906,72.75 149.98828,72.605469 149.6875,72.464844 149.35937,72.394531 149,72.394531 c -0.39453,0 -0.75391,0.09766 -1.08984,0.277344 -0.33594,0.183594 -0.59375,0.425781 -0.78125,0.738281 -0.1836,0.308594 -0.27735,0.652344 -0.27735,1.035156 0,0.582032 0.21094,1.070313 0.6211,1.457032 0.41015,0.386718 0.92968,0.585937 1.5625,0.585937 0.68359,0 1.26171,-0.265625 1.72656,-0.785156 l 0.38281,0.285156 c -0.24219,0.300781 -0.54687,0.535157 -0.91797,0.699219 -0.36328,0.164062 -0.77344,0.25 -1.22656,0.25 -0.85938,0 -1.54297,-0.277344 -2.03906,-0.835938 -0.41407,-0.464843 -0.62891,-1.03125 -0.62891,-1.695312 0,-0.703125 0.25781,-1.289062 0.76563,-1.765625 0.5039,-0.476563 1.13281,-0.714844 1.89453,-0.714844 0.46093,0 0.875,0.08984 1.24609,0.269531 0.37109,0.171876 0.67188,0.417969 0.90625,0.738282 z m 0,0"
       id="path26" />
    <path
       style="fill:#21a8e1;fill-opacity:1;fill-rule:nonzero;stroke:none"
       d="m 152.99609,75.929688 0.41407,-0.242188 c 0.29687,0.523438 0.64062,0.789062 1.02734,0.789062 0.16406,0 0.3125,-0.04297 0.46484,-0.113281 0.14453,-0.07422 0.25391,-0.171875 0.32813,-0.300781 0.0781,-0.125 0.11719,-0.257812 0.11719,-0.402344 0,-0.15625 -0.0586,-0.3125 -0.16797,-0.464844 -0.15625,-0.214843 -0.4375,-0.472656 -0.84375,-0.769531 -0.41407,-0.300781 -0.66797,-0.515625 -0.76563,-0.652343 -0.17578,-0.21875 -0.26172,-0.46875 -0.26172,-0.726563 0,-0.207031 0.0508,-0.394531 0.15235,-0.566406 0.10547,-0.171875 0.24609,-0.304688 0.43359,-0.40625 0.18359,-0.09766 0.39063,-0.148438 0.60547,-0.148438 0.23828,0 0.45312,0.05859 0.64844,0.167969 0.20703,0.109375 0.42187,0.316406 0.64453,0.617188 l -0.39844,0.292968 c -0.19141,-0.238281 -0.34375,-0.394531 -0.47266,-0.472656 -0.13671,-0.07031 -0.27734,-0.113281 -0.42968,-0.113281 -0.19922,0 -0.35938,0.0625 -0.48438,0.175781 -0.125,0.117188 -0.1875,0.261719 -0.1875,0.433594 0,0.101562 0.0195,0.203125 0.0625,0.300781 0.043,0.09766 0.125,0.203125 0.2461,0.320313 0.0625,0.05469 0.27734,0.214843 0.63281,0.476562 0.42578,0.304688 0.71875,0.574219 0.8789,0.808594 0.15625,0.238281 0.23829,0.480468 0.23829,0.71875 0,0.34375 -0.13672,0.644531 -0.40625,0.902344 -0.27344,0.257812 -0.60157,0.382812 -0.99219,0.382812 -0.29688,0 -0.56641,-0.07813 -0.8125,-0.230469 -0.24219,-0.15625 -0.46485,-0.417969 -0.67188,-0.777343 z m 0,0"
       id="path27" />
    <path
       style="fill:#0068ab;fill-opacity:1;fill-rule:nonzero;stroke:none"
       d="m 107.29688,61.769531 c 0,0.761719 0.61718,1.382813 1.3789,1.382813 0.71875,0 1.30469,-0.550782 1.375,-1.253906 0,-0.04297 0.004,-0.08594 0.004,-0.128907 0,-0.04687 -0.004,-0.08984 -0.004,-0.136719 0.0625,-1.203124 1.0625,-2.164062 2.27735,-2.164062 0.16406,0 0.32421,0.01953 0.47656,0.05078 -0.57813,-0.601562 -1.39453,-0.976562 -2.30078,-0.976562 -1.76953,0 -3.20703,1.445312 -3.20703,3.226563 z m 0,0"
       id="path28" />
    <path
       style="fill:#0068ab;fill-opacity:1;fill-rule:nonzero;stroke:none"
       d="m 113.75,61.769531 c 0,-0.765625 -0.62109,-1.386719 -1.38281,-1.386719 -0.71485,0 -1.30469,0.550782 -1.36719,1.25 -0.008,0.04688 -0.008,0.08984 -0.008,0.136719 0,0.04297 0,0.08594 0.008,0.128907 -0.0703,1.207031 -1.0625,2.164062 -2.28125,2.164062 -0.16406,0 -0.32422,-0.01172 -0.48047,-0.04687 0.58594,0.601563 1.40235,0.976563 2.30078,0.976563 1.77735,0 3.21094,-1.445313 3.21094,-3.222657 z m 0,0"
       id="path29" />
    <path
       style="fill:#0068ab;fill-opacity:1;fill-rule:nonzero;stroke:none"
       d="m 92.414062,66.855469 c -0.363281,0 -0.757812,-0.238281 -1.1875,-0.71875 L 78.972656,51.984375 v 13.460937 c 0,0.960938 -0.460937,1.410157 -1.347656,1.410157 -0.917969,0 -1.347656,-0.449219 -1.347656,-1.410157 V 48.503906 c 0,-0.902344 0.398437,-1.382812 1.25,-1.382812 0.296875,0 0.660156,0.238281 1.054687,0.71875 L 90.835938,61.960938 V 48.503906 c 0,-0.902344 0.460937,-1.382812 1.378906,-1.382812 0.886718,0 1.347656,0.480468 1.347656,1.382812 v 16.941406 c 0,0.960938 -0.394531,1.410157 -1.148438,1.410157 z m 0,0"
       id="path30" />
    <path
       style="fill:#0068ab;fill-opacity:1;fill-rule:nonzero;stroke:none"
       d="m 101.05469,65.144531 8.34765,-17.183593 c 0.26172,-0.539063 0.62891,-0.808594 1.08594,-0.808594 0.5586,0 0.98438,0.269531 1.2461,0.867187 l 8.57421,17.097657 c 0.0703,0.117187 0.10157,0.296874 0.10157,0.570312 0,0.78125 -0.46094,1.167969 -1.41407,1.167969 -0.39453,0 -0.7539,-0.269531 -1.01562,-0.8125 l -7.49219,-14.535157 -6.90234,14.511719 c -0.25781,0.539063 -0.65235,0.835938 -1.1836,0.835938 -1.01953,0 -1.54296,-0.386719 -1.54296,-1.167969 0,-0.148438 0.0664,-0.332031 0.19531,-0.542969 z m 0,0"
       id="path31" />
    <path
       style="fill:#0068ab;fill-opacity:1;fill-rule:nonzero;stroke:none"
       d="m 144.36719,48.863281 -8.34766,17.179688 c -0.26562,0.542969 -0.625,0.8125 -1.08594,0.8125 -0.55859,0 -0.98437,-0.269531 -1.25,-0.867188 l -8.57421,-17.097656 c -0.0664,-0.117187 -0.0977,-0.296875 -0.0977,-0.566406 0,-0.785157 0.46094,-1.171875 1.41406,-1.171875 0.39453,0 0.75391,0.269531 1.01953,0.808594 L 134.93359,62.5 141.83203,47.992188 c 0.26172,-0.539063 0.66016,-0.839844 1.18359,-0.839844 1.01954,0 1.54688,0.386718 1.54688,1.167968 0,0.152344 -0.0703,0.332032 -0.19531,0.542969 z m 0,0"
       id="path32" />
    <path
       style="fill:#0068ab;fill-opacity:1;fill-rule:nonzero;stroke:none"
       d="m 154.84766,66.855469 c -0.83985,0 -1.22266,-0.507813 -1.22266,-1.53125 V 48.652344 c 0,-1.023438 0.38281,-1.53125 1.22266,-1.53125 0.83593,0 1.25,0.507812 1.25,1.53125 v 16.671875 c 0,1.023437 -0.41407,1.53125 -1.25,1.53125 z m 0,0"
       id="path33" />
  </g>
</svg>
